#!OML:ASF F:\VICON\USERDATA\INSTALL\rory3\rory3.ASF
:FULLY-SPECIFIED
:DEGREES
590
root -20.4327 17.742 12.5639 -21.6008 -74.4729 18.0088
lowerback 10.1777 1.91495 -3.96784
upperback 0.846548 2.0163 -0.827353
thorax -4.93356 1.05452 1.08086
lowerneck -24.548 0.0181918 -7.51184
upperneck 29.739 1.65156 3.64955
head 14.2057 0.267766 3.05256
rclavicle 1.71079e-014 6.75868e-015
rhumerus -34.0539 -23.557 -75.5577
rradius 24.8144
rwrist 11.8832
rhand -14.6777 11.8151
rfingers 7.12502
rthumb 11.4756 -17.8508
lclavicle 1.71079e-014 6.75868e-015
lhumerus -31.6713 0.630303 84.9562
lradius 40.7036
lwrist -0.852876
lhand -18.7542 25.2956
lfingers 7.12502
lthumb 7.54243 55.1412
rfemur -17.0931 -2.51403 11.4188
rtibia 55.6823
rfoot -10.1161 -10.4744
rtoes 2.8277
lfemur 1.14496 1.41169 -28.1624
ltibia 13.1256
lfoot -7.29702 -13.1039
ltoes 1.48706
591
root -20.5173 17.7352 12.5601 -21.2217 -74.0048 17.658
lowerback 10.1411 1.80499 -4.08165
upperback 0.906831 1.86204 -0.793814
thorax -4.84696 0.978907 1.20454
lowerneck -24.6842 0.0645513 -7.35081
upperneck 29.6304 1.72845 3.48224
head 14.1858 0.300742 2.97039
rclavicle -6.26172e-015 -1.98785e-015
rhumerus -34.0678 -23.501 -75.4482
rradius 24.6037
rwrist 12.3431
rhand -14.7136 11.7119
rfingers 7.12502
rthumb 11.4409 -17.9559
lclavicle -6.26172e-015 -1.98785e-015
lhumerus -31.5134 0.417048 84.9255
lradius 41.2889
lwrist -0.373403
lhand -19.0445 25.7403
lfingers 7.12502
lthumb 7.26222 55.5957
rfemur -17.391 -1.88183 11.1023
rtibia 54.6002
rfoot -10.2777 -10.7831
rtoes 0.719517
lfemur 1.18511 1.32314 -28.1464
ltibia 13.5621
lfoot -7.72602 -13.5365
ltoes 1.89548
592
root -20.6021 17.7299 12.5529 -20.796 -73.4934 17.3206
lowerback 10.0192 1.76805 -4.10838
upperback 0.989576 1.81911 -0.776231
thorax -4.69123 0.954858 1.24903
lowerneck -24.8041 -0.0329954 -7.55498
upperneck 29.4947 1.65521 3.58481
head 14.1545 0.268292 3.0317
rclavicle 2.48543e-014 -7.7526e-015
rhumerus -34.1801 -24.1181 -74.9854
rradius 24.4508
rwrist 13.0286
rhand -14.4735 11.7732
rfingers 7.12502
rthumb 11.6725 -17.8817
lclavicle 2.48543e-014 -7.7526e-015
lhumerus -31.2658 0.0391225 85.0094
lradius 41.9249
lwrist 0.314608
lhand -18.8852 26.5184
lfingers 7.12502
lthumb 7.41594 56.3684
rfemur -17.6936 -1.2596 10.7431
rtibia 53.4487
rfoot -10.4448 -10.9801
rtoes 0.312129
lfemur 1.26798 1.13992 -28.1481
ltibia 13.798
lfoot -8.32095 -13.684
ltoes 0.200776
593
root -20.6832 17.7259 12.5478 -20.2159 -72.8454 16.7724
lowerback 10.136 1.74153 -3.99762
upperback 0.972213 1.7897 -0.783114
thorax -4.76934 0.939616 1.18051
lowerneck -24.7432 -0.193338 -7.91168
upperneck 29.3721 1.49232 3.81065
head 14.095 0.196322 3.14972
rclavicle 6.57853e-015 -1.51076e-014
rhumerus -34.5012 -24.4681 -74.5918
rradius 24.4537
rwrist 13.0577
rhand -14.2533 11.4904
rfingers 7.12502
rthumb 11.8848 -18.1523
lclavicle 6.57853e-015 -1.51076e-014
lhumerus -31.2278 -0.440505 85.1509
lradius 42.4943
lwrist 0.684277
lhand -18.6677 26.8062
lfingers 7.12502
lthumb 7.62592 56.6487
rfemur -17.86 -0.581102 10.3638
rtibia 52.2389
rfoot -10.8095 -11.0988
rtoes 3.01955
lfemur 1.3895 0.946466 -28.1103
ltibia 14.0239
lfoot -8.85361 -13.8991
ltoes -1.49016
594
root -20.7547 17.7132 12.5476 -19.4201 -71.845 15.7057
lowerback 10.8702 1.50505 -3.76473
upperback 0.851258 1.46135 -0.804497
thorax -5.28293 0.780977 1.0567
lowerneck -24.6733 -0.182193 -7.9044
upperneck 29.4254 1.49598 3.81494
head 14.103 0.196984 3.15142
rclavicle -4.52856e-015 -1.41137e-014
rhumerus -34.9658 -24.159 -74.5342
rradius 24.5355
rwrist 12.6952
rhand -14.4672 10.9932
rfingers 7.12502
rthumb 11.6786 -18.6613
lclavicle -4.52856e-015 -1.41137e-014
lhumerus -31.4792 -0.677453 85.1184
lradius 43.0032
lwrist 0.622298
lhand -18.6353 27.126
lfingers 7.12502
lthumb 7.65718 56.9674
rfemur -17.6475 -0.464494 10.0176
rtibia 50.9268
rfoot -10.7182 -11.2078
rtoes 2.60461
lfemur 1.76247 0.414455 -28.0455
ltibia 14.3006
lfoot -9.01443 -14.6857
ltoes -0.595101
595
root -20.836 17.6972 12.5332 -18.8163 -71.0934 15.1623
lowerback 11.1283 1.35724 -3.88913
upperback 0.706573 1.23621 -0.778519
thorax -5.57231 0.680017 1.18179
lowerneck -24.7039 -0.127847 -7.78146
upperneck 29.5178 1.56001 3.71598
head 14.1471 0.220624 3.1054
rclavicle 7.88243e-014 1.49089e-014
rhumerus -35.3814 -23.9451 -74.4335
rradius 24.6303
rwrist 12.5759
rhand -14.7468 10.6304
rfingers 7.12502
rthumb 11.4089 -19.0392
lclavicle 7.88243e-014 1.49089e-014
lhumerus -31.6162 -1.01941 85.0916
lradius 43.414
lwrist 0.729125
lhand -18.638 27.5793
lfingers 7.12502
lthumb 7.65455 57.4207
rfemur -17.73 -0.135622 9.66532
rtibia 49.5307
rfoot -10.6511 -11.1734
rtoes 1.0665
lfemur 1.8585 0.0990119 -27.9864
ltibia 14.4616
lfoot -9.16774 -15.1005
ltoes -0.412111
596
root -20.9327 17.6868 12.5238 -18.3067 -70.6903 14.6834
lowerback 10.9679 1.32456 -3.90711
upperback 0.780393 1.20503 -0.705923
thorax -5.40508 0.662753 1.27691
lowerneck -24.8047 -0.135851 -7.76901
upperneck 29.4524 1.58883 3.6258
head 14.1398 0.225137 3.07169
rclavicle 6.75992e-014 6.55989e-015
rhumerus -35.5565 -24.3284 -74.1054
rradius 24.6022
rwrist 12.7905
rhand -14.7029 10.4643
rfingers 7.12502
rthumb 11.4513 -19.2029
lclavicle 6.75992e-014 6.55989e-015
lhumerus -31.4458 -1.23413 85.1162
lradius 43.6762
lwrist 0.794137
lhand -18.5711 27.4613
lfingers 7.12502
lthumb 7.71915 57.3004
rfemur -17.7752 1.05556 9.43362
rtibia 48.0574
rfoot -10.6067 -11.6173
rtoes 0.492736
lfemur 1.97436 -0.0858981 -27.8411
ltibia 14.7247
lfoot -9.69347 -14.9044
ltoes -1.8287
597
root -21.0171 17.7033 12.5087 -17.4135 -70.1837 13.9122
lowerback 10.8756 1.24636 -3.82471
upperback 0.811541 1.12098 -0.643477
thorax -5.31573 0.61886 1.31111
lowerneck -24.8653 -0.145593 -7.75049
upperneck 29.3364 1.60685 3.54212
head 14.1027 0.228619 3.03547
rclavicle -2.85504e-014 2.18663e-015
rhumerus -35.6383 -24.4306 -73.9803
rradius 24.5556
rwrist 12.5491
rhand -14.6671 10.5887
rfingers 7.12502
rthumb 11.4858 -19.0766
lclavicle -2.85504e-014 2.18663e-015
lhumerus -31.2446 -1.17992 85.0486
lradius 43.8952
lwrist 0.489099
lhand -18.5413 27.0032
lfingers 7.12502
lthumb 7.74787 56.8413
rfemur -17.9408 1.39591 9.19603
rtibia 46.5296
rfoot -10.3187 -11.3265
rtoes 0.0547942
lfemur 1.97559 -0.156761 -27.5318
ltibia 14.894
lfoot -10.0027 -15.2372
ltoes -2.15882
598
root -21.1002 17.6978 12.4959 -17.0688 -69.6534 13.5702
lowerback 11.0226 1.18949 -3.81849
upperback 0.80228 1.03934 -0.633205
thorax -5.40352 0.580034 1.32866
lowerneck -24.9367 -0.155582 -7.72542
upperneck 29.3677 1.61496 3.4706
head 14.1325 0.223899 3.00578
rclavicle 2.6339e-015 -3.57812e-015
rhumerus -35.8367 -24.4149 -73.8601
rradius 24.5581
rwrist 12.2982
rhand -14.7657 10.6345
rfingers 7.12502
rthumb 11.3907 -19.0361
lclavicle 2.6339e-015 -3.57812e-015
lhumerus -31.2214 -1.15607 84.984
lradius 44.1652
lwrist 0.218658
lhand -18.6666 26.8868
lfingers 7.12502
lthumb 7.62697 56.7293
rfemur -17.8718 3.2703 8.89169
rtibia 45.0161
rfoot -10.192 -12.0012
rtoes -0.630447
lfemur 2.2221 -0.507937 -27.4285
ltibia 14.9117
lfoot -10.0526 -15.3882
ltoes -1.72352
599
root -21.1891 17.6962 12.4837 -16.832 -69.183 13.4404
lowerback 10.9614 1.20681 -3.91853
upperback 0.811526 1.05412 -0.622137
thorax -5.36246 0.589141 1.39525
lowerneck -25.0641 -0.240046 -7.70063
upperneck 29.3784 1.52898 3.37739
head 14.1728 0.176829 2.95009
rclavicle 4.47887e-014 1.53064e-014
rhumerus -36.0236 -24.3546 -73.8085
rradius 24.7019
rwrist 11.8228
rhand -14.9346 10.281
rfingers 7.12502
rthumb 11.2278 -19.3986
lclavicle 4.47887e-014 1.53064e-014
lhumerus -31.0749 -1.45456 84.9855
lradius 44.3583
lwrist 0.343666
lhand -18.7019 27.2174
lfingers 7.12502
lthumb 7.59289 57.0611
rfemur -18.0016 3.18 8.32434
rtibia 43.4522
rfoot -10.0628 -10.6268
rtoes -1.94684
lfemur 2.41712 -0.647204 -27.3399
ltibia 14.8478
lfoot -9.94061 -15.8205
ltoes -0.333222
600
root -21.2749 17.6958 12.4674 -16.4332 -68.6409 13.1454
lowerback 10.8945 1.23033 -3.90712
upperback 0.85316 1.08956 -0.645441
thorax -5.28243 0.604159 1.36046
lowerneck -25.1932 -0.378772 -7.73458
upperneck 29.3319 1.36647 3.3544
head 14.1925 0.103322 2.91704
rclavicle 3.6564e-014 -8.15017e-015
rhumerus -36.1887 -24.4444 -73.8017
rradius 24.8635
rwrist 11.0811
rhand -15.1422 9.94926
rfingers 7.12502
rthumb 11.0276 -19.7411
lclavicle 3.6564e-014 -8.15017e-015
lhumerus -30.8195 -1.81316 84.9326
lradius 44.4417
lwrist 0.278134
lhand -18.2388 27.4705
lfingers 7.12502
lthumb 8.03991 57.2976
rfemur -18.0945 3.69245 7.8495
rtibia 41.8714
rfoot -9.95894 -9.01205
rtoes -1.36008
lfemur 2.53866 -0.754864 -27.172
ltibia 14.8747
lfoot -9.95234 -16.4313
ltoes 0.928711
601
root -21.3631 17.6959 12.4536 -15.4053 -68.1153 12.1907
lowerback 10.8066 1.13631 -3.61917
upperback 0.860132 1.00876 -0.586964
thorax -5.21731 0.558158 1.27361
lowerneck -25.2382 -0.39965 -7.76817
upperneck 29.2843 1.36594 3.33162
head 14.1817 0.098685 2.9128
rclavicle -9.37394e-014 5.1684e-015
rhumerus -36.3918 -24.4419 -73.7824
rradius 24.9882
rwrist 10.6431
rhand -15.3071 9.78631
rfingers 7.12502
rthumb 10.8686 -19.9124
lclavicle -9.37394e-014 5.1684e-015
lhumerus -30.7777 -1.698 84.7799
lradius 44.5714
lwrist -0.112057
lhand -17.3822 27.4943
lfingers 7.12502
lthumb 8.86653 57.288
rfemur -18.0685 4.64895 7.6719
rtibia 40.2154
rfoot -9.64864 -7.17666
rtoes 0.642733
lfemur 2.75198 -1.00838 -26.7589
ltibia 14.7485
lfoot -10.1126 -16.8752
ltoes 1.14478
